# xmcd
#
# Track frame offsets:
#	150
#	16840
#	27497
#	39735
#	58557
#	71572
#	83927
#	103752
#	118827
#	137597
#	154762
#	169522
#	180442
#	196459
#	208802
#	224080
#	243240
#	261392
#	280630
#	298345
#
# Disc length: 4219
#
# Revision: 1
# Processed by: cddbd v1.5.1PL0 Copyright (c) Steve Scherf et al.
# Submitted via: dBpowerAMP V4.0
# Normalized: r0:TDELIM( - )
#
DISCID=32107914
DTITLE=Love - Crazy Little Thing Called Love
DYEAR=1900
DGENRE=Country
TTITLE0=Keith Whitley - When You Say Nothing At All
TTITLE1=Dwight Yoakham - Crazy Little Thing Called Love
TTITLE2=Hank Williams - Your Cheatin Heart
TTITLE3=Kenny Rogers And Dolly Parton - Islands In The Stream
TTITLE4=Dr Hook - A Lttle Bit More
TTITLE5=Nilsson - Everybody's Talkin
TTITLE6=The Mavericks - Dance The Night Away
TTITLE7=Jennifer Page - Crush
TTITLE8=Leann Rimes - How Do I Live
TTITLE9=Paula Cole - Where Have All The Cowboys Gone
TTITLE10=Bellamy Brothers - Let Your Love Flow
TTITLE11=Roy Orbison - Only The Lonely
TTITLE12=Willie Nelson - Always On My Mind
TTITLE13=Charlie Rich - The Most Beautiful Girl
TTITLE14=Billy Ray Cyrus - Achy Breaky Heart
TTITLE15=Marc Cohn - Walking In Memphis
TTITLE16=Mark Chesnutt - I Don't Wanna Miss A Thing
TTITLE17=Mindy McCready - Oh Romeo
TTITLE18=Linda Ronstadt - Blue Bayou
TTITLE19=Emmylou Harris - Sweet Dreams
EXTD=
EXTT0=
EXTT1=
EXTT2=
EXTT3=
EXTT4=
EXTT5=
EXTT6=
EXTT7=
EXTT8=
EXTT9=
EXTT10=
EXTT11=
EXTT12=
EXTT13=
EXTT14=
EXTT15=
EXTT16=
EXTT17=
EXTT18=
EXTT19=
PLAYORDER=
